<mxfile host="Electron" agent="Mozilla/5.0 (Windows NT 10.0; Win64; x64) AppleWebKit/537.36 (KHTML, like Gecko) draw.io/28.0.6 Chrome/138.0.7204.100 Electron/37.2.3 Safari/537.36" version="28.0.6">
  <diagram name="Página-1" id="biABLKO_Nm0Pghid_PKL">
    <mxGraphModel dx="1188" dy="701" grid="0" gridSize="10" guides="1" tooltips="1" connect="1" arrows="1" fold="1" page="1" pageScale="1" pageWidth="827" pageHeight="1169" math="0" shadow="0">
      <root>
        <mxCell id="0" />
        <mxCell id="1" parent="0" />
        <mxCell id="FRFLhydcmxtfOCwB4zKd-1" value="Preparación de plataformas para recibir matriculación pregrado Moodle" style="shape=table;startSize=34;container=1;collapsible=0;childLayout=tableLayout;fixedRows=1;rowLines=0;fontStyle=0;fontSize=15;fontFamily=Times New Roman;" vertex="1" parent="1">
          <mxGeometry x="26" y="25" width="452" height="106" as="geometry" />
        </mxCell>
        <mxCell id="FRFLhydcmxtfOCwB4zKd-2" value="" style="shape=tableRow;horizontal=0;startSize=0;swimlaneHead=0;swimlaneBody=0;top=0;left=0;bottom=0;right=0;collapsible=0;dropTarget=0;fillColor=none;points=[[0,0.5],[1,0.5]];portConstraint=eastwest;strokeColor=inherit;fontSize=16;fontFamily=Times New Roman;" vertex="1" parent="FRFLhydcmxtfOCwB4zKd-1">
          <mxGeometry y="34" width="452" height="22" as="geometry" />
        </mxCell>
        <mxCell id="FRFLhydcmxtfOCwB4zKd-3" value="&lt;font style=&quot;font-size: 14px;&quot;&gt;Detalle&lt;/font&gt;&lt;div&gt;&lt;br&gt;&lt;/div&gt;" style="shape=partialRectangle;html=1;whiteSpace=wrap;connectable=0;fillColor=none;top=0;left=0;bottom=0;right=0;overflow=hidden;pointerEvents=1;strokeColor=inherit;fontSize=16;fontFamily=Times New Roman;" vertex="1" parent="FRFLhydcmxtfOCwB4zKd-2">
          <mxGeometry width="80" height="22" as="geometry">
            <mxRectangle width="80" height="22" as="alternateBounds" />
          </mxGeometry>
        </mxCell>
        <mxCell id="FRFLhydcmxtfOCwB4zKd-4" value="&lt;font style=&quot;font-size: 15px;&quot;&gt;Ciclo 01-2025&lt;/font&gt;" style="shape=partialRectangle;html=1;whiteSpace=wrap;connectable=0;fillColor=none;top=0;left=0;bottom=0;right=0;align=left;spacingLeft=6;overflow=hidden;strokeColor=inherit;fontSize=16;fontFamily=Times New Roman;" vertex="1" parent="FRFLhydcmxtfOCwB4zKd-2">
          <mxGeometry x="80" width="372" height="22" as="geometry">
            <mxRectangle width="372" height="22" as="alternateBounds" />
          </mxGeometry>
        </mxCell>
        <mxCell id="FRFLhydcmxtfOCwB4zKd-5" value="" style="shape=tableRow;horizontal=0;startSize=0;swimlaneHead=0;swimlaneBody=0;top=0;left=0;bottom=0;right=0;collapsible=0;dropTarget=0;fillColor=none;points=[[0,0.5],[1,0.5]];portConstraint=eastwest;strokeColor=inherit;fontSize=16;fontFamily=Times New Roman;" vertex="1" parent="FRFLhydcmxtfOCwB4zKd-1">
          <mxGeometry y="56" width="452" height="30" as="geometry" />
        </mxCell>
        <mxCell id="FRFLhydcmxtfOCwB4zKd-6" value="&lt;font style=&quot;font-size: 14px;&quot;&gt;Encargado&lt;/font&gt;" style="shape=partialRectangle;html=1;whiteSpace=wrap;connectable=0;fillColor=none;top=0;left=0;bottom=0;right=0;overflow=hidden;strokeColor=inherit;fontSize=16;fontFamily=Times New Roman;" vertex="1" parent="FRFLhydcmxtfOCwB4zKd-5">
          <mxGeometry width="80" height="30" as="geometry">
            <mxRectangle width="80" height="30" as="alternateBounds" />
          </mxGeometry>
        </mxCell>
        <mxCell id="FRFLhydcmxtfOCwB4zKd-7" value="&lt;span style=&quot;font-size: 14px;&quot;&gt;Juan Santos y René Cruz&lt;/span&gt;" style="shape=partialRectangle;html=1;whiteSpace=wrap;connectable=0;fillColor=none;top=0;left=0;bottom=0;right=0;align=left;spacingLeft=6;overflow=hidden;strokeColor=inherit;fontSize=16;fontFamily=Times New Roman;" vertex="1" parent="FRFLhydcmxtfOCwB4zKd-5">
          <mxGeometry x="80" width="372" height="30" as="geometry">
            <mxRectangle width="372" height="30" as="alternateBounds" />
          </mxGeometry>
        </mxCell>
        <mxCell id="FRFLhydcmxtfOCwB4zKd-8" value="" style="shape=tableRow;horizontal=0;startSize=0;swimlaneHead=0;swimlaneBody=0;top=0;left=0;bottom=0;right=0;collapsible=0;dropTarget=0;fillColor=none;points=[[0,0.5],[1,0.5]];portConstraint=eastwest;strokeColor=inherit;fontSize=16;fontFamily=Times New Roman;" vertex="1" parent="FRFLhydcmxtfOCwB4zKd-1">
          <mxGeometry y="86" width="452" height="20" as="geometry" />
        </mxCell>
        <mxCell id="FRFLhydcmxtfOCwB4zKd-9" value="" style="shape=partialRectangle;html=1;whiteSpace=wrap;connectable=0;fillColor=none;top=0;left=0;bottom=0;right=0;overflow=hidden;strokeColor=inherit;fontSize=16;fontFamily=Times New Roman;" vertex="1" parent="FRFLhydcmxtfOCwB4zKd-8">
          <mxGeometry width="80" height="20" as="geometry">
            <mxRectangle width="80" height="20" as="alternateBounds" />
          </mxGeometry>
        </mxCell>
        <mxCell id="FRFLhydcmxtfOCwB4zKd-10" value="" style="shape=partialRectangle;html=1;whiteSpace=wrap;connectable=0;fillColor=none;top=0;left=0;bottom=0;right=0;align=left;spacingLeft=6;overflow=hidden;strokeColor=inherit;fontSize=16;fontFamily=Times New Roman;" vertex="1" parent="FRFLhydcmxtfOCwB4zKd-8">
          <mxGeometry x="80" width="372" height="20" as="geometry">
            <mxRectangle width="372" height="20" as="alternateBounds" />
          </mxGeometry>
        </mxCell>
        <mxCell id="FRFLhydcmxtfOCwB4zKd-13" value="" style="edgeStyle=orthogonalEdgeStyle;rounded=0;orthogonalLoop=1;jettySize=auto;html=1;fontSize=13;" edge="1" parent="1" source="FRFLhydcmxtfOCwB4zKd-11" target="FRFLhydcmxtfOCwB4zKd-12">
          <mxGeometry relative="1" as="geometry" />
        </mxCell>
        <mxCell id="FRFLhydcmxtfOCwB4zKd-11" value="&lt;font&gt;Preparación de plataformas para recibir matriculación pregrao&lt;/font&gt;" style="rounded=0;whiteSpace=wrap;html=1;fontFamily=Times New Roman;fillColor=#dae8fc;strokeColor=#6c8ebf;fontSize=13;" vertex="1" parent="1">
          <mxGeometry x="343" y="193" width="141" height="60" as="geometry" />
        </mxCell>
        <mxCell id="FRFLhydcmxtfOCwB4zKd-15" value="" style="edgeStyle=orthogonalEdgeStyle;rounded=0;orthogonalLoop=1;jettySize=auto;html=1;fontSize=13;" edge="1" parent="1" source="FRFLhydcmxtfOCwB4zKd-12" target="FRFLhydcmxtfOCwB4zKd-14">
          <mxGeometry relative="1" as="geometry" />
        </mxCell>
        <mxCell id="FRFLhydcmxtfOCwB4zKd-12" value="El área técnica creará las categorías correspondientes al año, ciclo, facultad, SETACO, Seminario,etc." style="whiteSpace=wrap;html=1;fontFamily=Times New Roman;rounded=0;fontSize=13;" vertex="1" parent="1">
          <mxGeometry x="303" y="288" width="220" height="59" as="geometry" />
        </mxCell>
        <mxCell id="FRFLhydcmxtfOCwB4zKd-35" value="" style="edgeStyle=orthogonalEdgeStyle;rounded=0;orthogonalLoop=1;jettySize=auto;html=1;fontSize=13;" edge="1" parent="1" source="FRFLhydcmxtfOCwB4zKd-14" target="FRFLhydcmxtfOCwB4zKd-34">
          <mxGeometry relative="1" as="geometry" />
        </mxCell>
        <mxCell id="FRFLhydcmxtfOCwB4zKd-14" value="&lt;font&gt;Identificar el servidor donde se crearan los salones de apoyo&lt;/font&gt;" style="whiteSpace=wrap;html=1;fontFamily=Times New Roman;rounded=0;fontSize=13;" vertex="1" parent="1">
          <mxGeometry x="353" y="388" width="120" height="60" as="geometry" />
        </mxCell>
        <mxCell id="FRFLhydcmxtfOCwB4zKd-19" value="" style="edgeStyle=orthogonalEdgeStyle;rounded=0;orthogonalLoop=1;jettySize=auto;html=1;fontSize=13;" edge="1" parent="1" source="FRFLhydcmxtfOCwB4zKd-16" target="FRFLhydcmxtfOCwB4zKd-18">
          <mxGeometry relative="1" as="geometry" />
        </mxCell>
        <mxCell id="FRFLhydcmxtfOCwB4zKd-16" value="&lt;font&gt;Desde el área técnica enviar correo al encargo de la dirección de tecnología la información de las categorías creadas (servidor, id de la categorías, facultad y SETACO&lt;/font&gt;" style="whiteSpace=wrap;html=1;fontFamily=Times New Roman;rounded=0;fontSize=13;" vertex="1" parent="1">
          <mxGeometry x="524" y="637" width="207" height="88" as="geometry" />
        </mxCell>
        <mxCell id="FRFLhydcmxtfOCwB4zKd-21" value="" style="edgeStyle=orthogonalEdgeStyle;rounded=0;orthogonalLoop=1;jettySize=auto;html=1;fontSize=13;" edge="1" parent="1" source="FRFLhydcmxtfOCwB4zKd-18" target="FRFLhydcmxtfOCwB4zKd-20">
          <mxGeometry relative="1" as="geometry" />
        </mxCell>
        <mxCell id="FRFLhydcmxtfOCwB4zKd-18" value="Esperar confirmación de carga masiva (un aproximado de dos días)" style="whiteSpace=wrap;html=1;fontFamily=Times New Roman;rounded=0;fontSize=13;" vertex="1" parent="1">
          <mxGeometry x="557.5" y="760" width="140" height="60" as="geometry" />
        </mxCell>
        <mxCell id="FRFLhydcmxtfOCwB4zKd-20" value="El área técnica verifica que se hayan creado las aulas de acuerdo con las categorías&amp;nbsp;" style="whiteSpace=wrap;html=1;fontFamily=Times New Roman;rounded=0;fontSize=13;" vertex="1" parent="1">
          <mxGeometry x="556" y="855" width="141.5" height="60" as="geometry" />
        </mxCell>
        <mxCell id="FRFLhydcmxtfOCwB4zKd-36" style="edgeStyle=orthogonalEdgeStyle;rounded=0;orthogonalLoop=1;jettySize=auto;html=1;exitX=0;exitY=0.5;exitDx=0;exitDy=0;entryX=0;entryY=0.5;entryDx=0;entryDy=0;fontSize=13;" edge="1" parent="1" source="FRFLhydcmxtfOCwB4zKd-22" target="FRFLhydcmxtfOCwB4zKd-34">
          <mxGeometry relative="1" as="geometry" />
        </mxCell>
        <mxCell id="FRFLhydcmxtfOCwB4zKd-22" value="¿Información correcta?" style="rhombus;whiteSpace=wrap;html=1;fontFamily=Times New Roman;rounded=0;fontSize=13;" vertex="1" parent="1">
          <mxGeometry x="341" y="554" width="147" height="80" as="geometry" />
        </mxCell>
        <mxCell id="FRFLhydcmxtfOCwB4zKd-26" style="edgeStyle=orthogonalEdgeStyle;rounded=0;orthogonalLoop=1;jettySize=auto;html=1;exitX=1;exitY=0.5;exitDx=0;exitDy=0;entryX=0.527;entryY=0.017;entryDx=0;entryDy=0;entryPerimeter=0;fontSize=13;" edge="1" parent="1" source="FRFLhydcmxtfOCwB4zKd-22" target="FRFLhydcmxtfOCwB4zKd-16">
          <mxGeometry relative="1" as="geometry" />
        </mxCell>
        <mxCell id="FRFLhydcmxtfOCwB4zKd-27" value="SI" style="text;html=1;align=center;verticalAlign=middle;resizable=0;points=[];autosize=1;strokeColor=none;fillColor=none;fontSize=13;" vertex="1" parent="1">
          <mxGeometry x="476" y="592" width="30" height="28" as="geometry" />
        </mxCell>
        <mxCell id="FRFLhydcmxtfOCwB4zKd-34" value="Verificar información" style="whiteSpace=wrap;html=1;fontFamily=Times New Roman;rounded=0;fontSize=13;" vertex="1" parent="1">
          <mxGeometry x="353" y="481" width="120" height="40" as="geometry" />
        </mxCell>
        <mxCell id="FRFLhydcmxtfOCwB4zKd-37" value="NO" style="text;html=1;align=center;verticalAlign=middle;resizable=0;points=[];autosize=1;strokeColor=none;fillColor=none;fontSize=13;" vertex="1" parent="1">
          <mxGeometry x="322" y="597" width="38" height="28" as="geometry" />
        </mxCell>
      </root>
    </mxGraphModel>
  </diagram>
</mxfile>
